<?xml version="1.0" encoding="UTF-8"?><svg id="a" xmlns="http://www.w3.org/2000/svg" viewBox="0 0 1939.85 482.28"><path d="M558.31,136.71c0,8.22-1.62,15.3-4.85,21.22-3.24,5.92-7.81,10.09-13.73,12.5l26.81,49.67h-40.13l-18.09-42.93h-12.5v42.93h-34.38v-123.36h47.04c16.67,0,29.14,3.24,37.42,9.71,8.28,6.47,12.42,16.56,12.42,30.26ZM522.45,138.03c0-5.37-.99-9.02-2.96-10.94-1.97-1.92-5.54-2.88-10.69-2.88h-12.99v28.29h12.67c5.26,0,8.91-.96,10.94-2.88,2.03-1.92,3.04-5.78,3.04-11.6Z" fill="#fff"/><path d="M622.46,221.92c-34.87,0-52.31-17.6-52.31-52.8,0-16.45,3.81-29.11,11.43-38,7.62-8.88,19.16-13.32,34.62-13.32,13.71,0,24.26,3.92,31.66,11.76,7.4,7.84,11.1,19.55,11.1,35.12,0,4.83-.28,9.54-.82,14.15h-55.1c.66,6.03,2.85,10.34,6.58,12.91,3.73,2.58,9.32,3.86,16.78,3.86,9.32,0,18.15-1.37,26.48-4.11l3.45,24.34c-9.43,4.06-20.73,6.09-33.88,6.09ZM602.39,158.92h27.63c-.11-5.59-1.29-9.65-3.54-12.17-2.25-2.52-5.62-3.78-10.12-3.78-4.83,0-8.25,1.15-10.28,3.45-2.03,2.3-3.26,6.47-3.7,12.5Z" fill="#fff"/><path d="M759.14,220.11h-24.67l-2.8-7.9c-6.8,6.58-15.41,9.87-25.82,9.87-25.66,0-38.49-17.6-38.49-52.8,0-16.45,3.23-29.17,9.7-38.16,6.47-8.99,15.84-13.49,28.13-13.49,8.55,0,16.01,2.58,22.37,7.73l.33-.33-.33-13.16v-18.92l31.58-1.48v128.63ZM727.56,190.83v-40.46c-2.96-3.73-7.24-5.59-12.83-5.59s-9.29,1.84-11.43,5.51c-2.14,3.68-3.21,10.39-3.21,20.15,0,10.64,1.01,17.79,3.04,21.47,2.03,3.67,5.95,5.51,11.76,5.51s10.14-2.19,12.67-6.58Z" fill="#fff"/><path d="M904.22,220.11h-24.67l-2.8-7.9c-6.8,6.58-15.41,9.87-25.82,9.87-25.66,0-38.49-17.6-38.49-52.8,0-16.45,3.23-29.17,9.7-38.16,6.47-8.99,15.84-13.49,28.13-13.49,8.55,0,16.01,2.58,22.37,7.73l.33-.33-.33-13.16v-18.92l31.58-1.48v128.63ZM872.64,190.83v-40.46c-2.96-3.73-7.24-5.59-12.83-5.59s-9.29,1.84-11.43,5.51c-2.14,3.68-3.21,10.39-3.21,20.15,0,10.64,1.01,17.79,3.04,21.47,2.03,3.67,5.95,5.51,11.76,5.51s10.14-2.19,12.67-6.58Z" fill="#fff"/><path d="M969.52,221.92c-34.87,0-52.31-17.6-52.31-52.8,0-16.45,3.81-29.11,11.43-38,7.62-8.88,19.16-13.32,34.62-13.32,13.71,0,24.26,3.92,31.66,11.76,7.4,7.84,11.1,19.55,11.1,35.12,0,4.83-.28,9.54-.82,14.15h-55.1c.66,6.03,2.85,10.34,6.58,12.91,3.73,2.58,9.32,3.86,16.78,3.86,9.32,0,18.15-1.37,26.48-4.11l3.45,24.34c-9.43,4.06-20.73,6.09-33.88,6.09ZM949.45,158.92h27.63c-.11-5.59-1.29-9.65-3.54-12.17-2.25-2.52-5.62-3.78-10.12-3.78-4.83,0-8.25,1.15-10.28,3.45-2.03,2.3-3.26,6.47-3.7,12.5Z" fill="#fff"/><path d="M1144.86,126.51h-50.83v20.73h42.11l-.33,28.13h-41.78v44.74h-34.38v-123.36h84.71l.49,29.77Z" fill="#fff"/><path d="M1235.73,130.13c7.51,8.33,11.27,21.71,11.27,40.13s-3.76,31.72-11.27,39.89c-7.51,8.17-19.6,12.25-36.27,12.25s-28.62-4.11-36.19-12.34c-7.57-8.22-11.35-21.49-11.35-39.81s3.81-31.66,11.43-40.05c7.62-8.39,19.71-12.58,36.27-12.58s28.59,4.17,36.1,12.5ZM1184.82,170.27c0,10.86,1.07,18.15,3.21,21.88,2.14,3.73,6,5.59,11.6,5.59s9.43-1.86,11.51-5.59c2.08-3.73,3.13-11.02,3.13-21.88s-1.04-18.28-3.13-21.96c-2.08-3.67-5.92-5.51-11.51-5.51s-9.6,1.84-11.68,5.51c-2.08,3.68-3.13,11-3.13,21.96Z" fill="#fff"/><path d="M1291.24,220.11h-31.75v-99.84l25.17-1.15,2.8,14.47h.49c6.03-10.53,14.64-15.79,25.82-15.79,4.61,0,8.39.55,11.35,1.65l-1.81,29.94c-3.62-1.09-7.51-1.65-11.68-1.65-6.25,0-11.21,1.95-14.89,5.84-3.68,3.89-5.51,9.35-5.51,16.37v50.17Z" fill="#fff"/><path d="M1477.44,220.11h-31.58v-62.83c0-8.44-3.89-12.67-11.68-12.67s-11.51,4.06-11.51,12.17v63.33h-31.75v-63.33c0-8.11-3.84-12.17-11.51-12.17-5.16,0-9.05,1.87-11.68,5.59v69.91h-31.58v-99.84l22.7-1.32,4.93,8.55c7.46-6.58,15.84-9.87,25.17-9.87,11.84,0,20.5,4.17,25.99,12.5,6.91-8.33,16.28-12.5,28.13-12.5,10.42,0,18.75,3.35,25,10.03,6.25,6.69,9.38,16.34,9.38,28.95v63.49Z" fill="#fff"/><path d="M1549.48,220.11l-2.3-8.22c-6.91,6.58-15.63,9.87-26.15,9.87-9.98,0-17.71-2.85-23.19-8.55-5.48-5.7-8.22-14.09-8.22-25.17,0-9.43,3.21-17.08,9.62-22.95,6.41-5.86,15.16-8.8,26.24-8.8,6.14,0,11.79.71,16.94,2.14v-3.62c0-3.84-1.29-6.72-3.87-8.64-2.58-1.92-6.83-2.88-12.75-2.88-8.88,0-18.04,1.7-27.47,5.1l-2.47-24.01c10.2-4.38,22.15-6.58,35.86-6.58,15.46,0,26.34,3.32,32.65,9.95,6.3,6.64,9.46,17.13,9.46,31.5v60.86h-24.34ZM1542.41,188.69v-10.2c-3.51-.99-7.13-1.48-10.86-1.48-8.22,0-12.34,3.56-12.34,10.69s3.51,10.2,10.53,10.2c3.51,0,6.5-.88,8.96-2.63,2.47-1.75,3.7-3.95,3.7-6.58Z" fill="#fff"/><path d="M1657.06,121.91l-1.64,25.66c-5.92-1.65-11.02-2.47-15.3-2.47-8.33,0-14.06,1.84-17.19,5.51-3.13,3.68-4.69,10.28-4.69,19.82,0,17.11,7.07,25.66,21.22,25.66,5.81,0,11.29-.99,16.45-2.96l2.14,23.69c-6.14,3.51-14.64,5.26-25.5,5.26-15.46,0-27.2-4.36-35.2-13.08-8.01-8.72-12.01-21.57-12.01-38.57,0-34.98,15.96-52.47,47.87-52.47,8.99,0,16.94,1.32,23.85,3.95Z" fill="#fff"/><path d="M1705.41,99.7c0,8.22-5.7,12.34-17.11,12.34-6.03,0-10.42-.93-13.16-2.8-2.74-1.86-4.11-5.04-4.11-9.54,0-8.22,5.76-12.34,17.27-12.34s17.11,4.11,17.11,12.34ZM1704.43,220.11h-32.4v-99.68l32.4-1.48v101.16Z" fill="#fff"/><path d="M1803.03,130.13c7.51,8.33,11.27,21.71,11.27,40.13s-3.76,31.72-11.27,39.89c-7.51,8.17-19.6,12.25-36.27,12.25s-28.62-4.11-36.19-12.34c-7.57-8.22-11.35-21.49-11.35-39.81s3.81-31.66,11.43-40.05c7.62-8.39,19.71-12.58,36.27-12.58s28.59,4.17,36.1,12.5ZM1759.86,88.68h35.69l-20.4,24.01h-23.52l8.22-24.01ZM1752.12,170.27c0,10.86,1.07,18.15,3.21,21.88,2.14,3.73,6,5.59,11.6,5.59s9.43-1.86,11.51-5.59c2.08-3.73,3.13-11.02,3.13-21.88s-1.04-18.28-3.13-21.96c-2.08-3.67-5.92-5.51-11.51-5.51s-9.6,1.84-11.68,5.51c-2.08,3.68-3.13,11-3.13,21.96Z" fill="#fff"/><path d="M1915.46,220.11h-31.75v-62.83c0-4.49-.99-7.76-2.96-9.79-1.97-2.03-5.05-3.04-9.21-3.04-5.81,0-10.2,1.92-13.16,5.76v69.91h-31.58v-100.01l22.7-1.32,4.44,7.9c7.57-6.03,16.45-9.05,26.65-9.05,10.75,0,19.24,3.45,25.5,10.36,6.25,6.91,9.38,16.67,9.38,29.28v62.83Z" fill="#fff"/><path d="M544.66,336.69c0,12.39-4.28,22.18-12.83,29.36-8.55,7.18-20.23,10.77-35.04,10.77s-27.58-3.01-39.31-9.05l4.28-28.46c11.84,5.92,23.41,8.88,34.71,8.88,10.2,0,15.3-3.13,15.3-9.38,0-2.3-1.34-4.33-4.03-6.09-2.69-1.75-6.03-3.21-10.03-4.36-4-1.15-8.33-2.74-12.99-4.77-4.66-2.03-8.99-4.33-12.99-6.91-4-2.58-7.35-6.3-10.03-11.19-2.69-4.88-4.03-10.55-4.03-17.02,0-11.62,3.92-21.11,11.76-28.46,7.84-7.34,19.6-11.02,35.28-11.02,13.27,0,25.22,2.08,35.86,6.25l-3.95,27.8c-10.86-3.18-20.84-4.77-29.94-4.77-6.14,0-10.34.71-12.58,2.14-2.25,1.43-3.37,3.51-3.37,6.25,0,2.3,1.34,4.36,4.03,6.17,2.69,1.81,6,3.26,9.95,4.36,3.95,1.1,8.28,2.63,12.99,4.61,4.71,1.97,9.05,4.22,12.99,6.74,3.95,2.52,7.26,6.23,9.95,11.1,2.69,4.88,4.03,10.56,4.03,17.03Z" fill="#00aeef"/><path d="M612.75,374.52l-2.3-8.22c-6.91,6.58-15.63,9.87-26.15,9.87-9.98,0-17.71-2.85-23.19-8.55-5.48-5.7-8.22-14.09-8.22-25.17,0-9.43,3.21-17.08,9.62-22.95,6.41-5.86,15.16-8.8,26.24-8.8,6.14,0,11.79.71,16.94,2.14v-3.62c0-3.84-1.29-6.72-3.87-8.64-2.58-1.92-6.83-2.88-12.75-2.88-8.88,0-18.04,1.7-27.47,5.1l-2.47-24.01c10.2-4.38,22.15-6.58,35.86-6.58,15.46,0,26.34,3.32,32.65,9.95,6.3,6.64,9.46,17.13,9.46,31.5v60.86h-24.34ZM605.68,343.1v-10.2c-3.51-.99-7.13-1.48-10.86-1.48-8.22,0-12.34,3.56-12.34,10.69s3.51,10.2,10.53,10.2c3.51,0,6.5-.88,8.96-2.63,2.47-1.75,3.7-3.95,3.7-6.58Z" fill="#00aeef"/><path d="M741.21,374.52h-31.75v-62.83c0-4.49-.99-7.76-2.96-9.79-1.97-2.03-5.05-3.04-9.21-3.04-5.81,0-10.2,1.92-13.16,5.76v69.91h-31.58v-100.01l22.7-1.32,4.44,7.9c7.57-6.03,16.45-9.05,26.65-9.05,10.75,0,19.24,3.45,25.5,10.36,6.25,6.91,9.38,16.67,9.38,29.28v62.83Z" fill="#00aeef"/><path d="M798.12,251.16h37.67l24.51,63,4.61,12.5h.49l4.44-12.34,24.84-63.16h37.5v123.36h-31.42v-51.98l.33-13.32-.49-.16-4.61,12.67-20.23,52.8h-22.53l-20.23-53.13-4.44-12.67-.33.16.16,13.32v52.31h-30.27v-123.36Z" fill="#00aeef"/><path d="M1006.03,374.52l-2.3-8.22c-6.91,6.58-15.63,9.87-26.15,9.87-9.98,0-17.71-2.85-23.19-8.55-5.48-5.7-8.22-14.09-8.22-25.17,0-9.43,3.21-17.08,9.62-22.95,6.41-5.86,15.16-8.8,26.24-8.8,6.14,0,11.79.71,16.94,2.14v-3.62c0-3.84-1.29-6.72-3.87-8.64-2.58-1.92-6.83-2.88-12.75-2.88-8.88,0-18.04,1.7-27.47,5.1l-2.47-24.01c10.2-4.38,22.15-6.58,35.86-6.58,15.46,0,26.34,3.32,32.65,9.95,6.3,6.64,9.46,17.13,9.46,31.5v60.86h-24.34ZM998.96,343.1v-10.2c-3.51-.99-7.13-1.48-10.86-1.48-8.22,0-12.34,3.56-12.34,10.69s3.51,10.2,10.53,10.2c3.51,0,6.5-.88,8.96-2.63,2.47-1.75,3.7-3.95,3.7-6.58Z" fill="#00aeef"/><path d="M1077.58,374.52h-31.75v-99.84l25.17-1.15,2.8,14.47h.49c6.03-10.53,14.64-15.79,25.82-15.79,4.61,0,8.39.55,11.35,1.65l-1.81,29.94c-3.62-1.09-7.51-1.65-11.68-1.65-6.25,0-11.21,1.95-14.89,5.84-3.68,3.89-5.51,9.35-5.51,16.37v50.17Z" fill="#00aeef"/><path d="M1178.9,296.72h-20.89v46.22c0,3.18.82,5.51,2.47,6.99s4.28,2.22,7.9,2.22c3.07,0,5.65-.38,7.73-1.15l1.64,22.04c-4.17,2.08-10.53,3.13-19.08,3.13-10.75,0-18.83-2.85-24.26-8.55-5.43-5.7-8.14-13.65-8.14-23.85v-47.04h-9.54v-22.86h11.18l5.1-21.38,25-2.14v23.52h20.89v22.86Z" fill="#00aeef"/><path d="M1224.3,374.52h-32.4v-99.68l32.4-1.48v101.16ZM1201.76,243.1h35.69l-20.4,24.01h-23.52l8.22-24.01Z" fill="#00aeef"/><path d="M1331.71,374.52h-31.75v-62.83c0-4.49-.99-7.76-2.96-9.79-1.97-2.03-5.05-3.04-9.21-3.04-5.81,0-10.2,1.92-13.16,5.76v69.91h-31.58v-100.01l22.7-1.32,4.44,7.9c7.57-6.03,16.45-9.05,26.65-9.05,10.75,0,19.24,3.45,25.5,10.36,6.25,6.91,9.38,16.67,9.38,29.28v62.83Z" fill="#00aeef"/><path d="M197.5,58.1c.39.03.79-.04,1.18,0,.25.02,1.47.46,2.36.59,19.89,3.01,38.34,15.52,47.94,33.27,5.87,10.85,8.19,22.93,8.17,35.24,4.96-1.79,9.47-4.75,14.45-6.51,50.77-17.92,99.86,29.53,84.46,80.92-4.47,14.91-14.48,26.87-27.01,35.62-1.24.86-6.04,2.71-5.73,4.19.2.96,8.94,5.97,10.55,7.2,57.45,43.69,8.25,137.73-62.27,113.06-5-1.75-9.56-4.83-14.45-6.51-.33,3.61-.16,8-.6,11.5-6.02,48.23-59.89,73.38-100.98,46.96-5.08-3.27-8.94-8.53-13.58-11.22-.42-2.19-4.81-7.27-6.37-9.87-3.94-6.55-6.97-14.31-8.21-21.91-.86-5.26-.72-10.23-1.37-15.47-4.52,1.44-8.69,4.23-13.28,5.92-4.91,1.81-10.01,2.85-15.07,4.12-.39,0-.79,0-1.18,0h-2.36c-2.94.04-5.92.03-8.86,0h-1.77c-.59,0-1.18,0-1.77,0-3.63-1.14-7.48-1.68-11.22-2.36-.19-.03-.4.04-.59,0-3.94-2.2-8.25-3.6-12.21-5.8-31.54-17.57-42.97-59.17-24.41-90.46.25-.42.41-.9.59-1.18,6.35-10.04,15.85-17.93,26.2-23.57,1.49-1.36-3.28-2.85-4.55-3.69-16.39-10.93-26.74-25.19-30.52-44.78.02-.57.09-2.84,0-2.95l-.59-1.18c.03-.39-.01-.79,0-1.18.13-3.42.12-7.21,0-10.63-.02-.59.04-1.19,0-1.77.79-.28.54-1.13.59-1.77,3.04-41.97,49.72-66.55,87.71-52.57,4.61,1.7,8.76,4.41,13.27,5.91-.14-16.59,4.53-33.03,15.37-45.75,10.67-12.52,25.51-20.72,41.91-22.75,4.64-.57,9.45-.92,14.17-.59ZM186.28,95.31c-.95.16-1.54.38-2.36.59-.7.18-1.02.54-1.18.59-.69.22-1.01.29-1.77.59-.59.23-1.41.13-2.36.59-10.93,5.3-16.88,17.15-16.04,29.13-17.93,11.15-36.57,21.33-54.82,32.04-1.89.39-3.93-1.86-5.69-2.63-35.92-15.77-58.68,36.52-23.82,52.88-.02,8.92-.05,17.85-.02,26.77,0,3.34.01,6.7,0,10.04l-.09,27.37c-5.19,3.05-9.69,6.07-12.91,11.3-15.92,25.9,13.33,55.87,39.53,40.13,20.26-12.18,17.63-41.82-3.52-51.43.06-9.12,0-18.25.02-27.36,0-3.73-.02-7.49,0-11.22.01-2.95-.02-5.91,0-8.86l.87.6,66.18,114.51c-2.38,4.94-5.14,9.45-5.64,15.12-1.25,14.42,8.59,28.43,23.02,30.99,5.19.92,9.1.84,14.17-.59,26.91-7.59,27.35-46.59,1.18-54.92-4.38-1.39-9-1.97-13.58-1.77-.24-1.47-1.02-2.65-1.67-3.94l-64.47-111.81,143.4,82.18c-3.44,27.55,30.35,44.1,49.72,23.84,20.76-21.71-1.88-57.44-30.72-47.25-2.81.99-6.28,4.12-8.69,3.39-44.08-25.73-88.68-50.6-132.77-76.32-3.05-1.78-6.47-3.65-9.15-5.91h133.76c11.24,25.55,49.42,21.91,54.95-5.88,4.66-23.41-19.68-42.31-41.1-31.65-6.07,3.02-11.23,8.06-13.56,14.5h-134.06c13.04-8.72,27.27-15.85,40.75-23.98.87-.21,4.39,2.31,5.93,3,2.06.91,4.26,1.68,6.47,2.09,4.41.8,8.65.54,12.99-.59,27.63-7.22,28.04-47.77,1.18-55.51-4.9-1.41-9.25-1.44-14.17-.59Z" fill="#fff"/><path d="M283.73,272.78c-2.81.99-6.28,4.12-8.69,3.39-46.98-27.92-95.52-53.42-141.91-82.23h133.76c11.24,25.55,49.42,21.91,54.95-5.88,4.66-23.41-19.68-42.31-41.1-31.65-6.07,3.02-11.23,8.06-13.56,14.5h-134.06c13.04-8.72,27.27-15.85,40.75-23.98.87-.21,4.39,2.31,5.93,3,47.13,18.19,56.39-62.16,6.47-54.6-14.84,2.47-25,16.52-23.72,31.5-17.93,11.15-36.57,21.33-54.82,32.04-35.79-23.02-68.06,30.93-29.51,50.25-.05,19.68,0,44.3-.12,64.18-36.24,16.9-8.62,72.21,26.62,51.42,20.26-12.17,17.62-41.82-3.52-51.43.07-15.81,0-31.63.03-47.44,1.48-.07,66.19,114.5,67.06,115.11-11.96,16.68-3.63,42.5,17.39,46.11,5.19.92,9.1.84,14.17-.59.1-1.53-1.32-1.03-1.64-2.77-.23-1.26-.18-2.55-.14-3.83-.04,1.28-.09,2.57.14,3.83.32,1.74,1.73,1.24,1.64,2.77,34.22-10.25,21.97-60.81-12.4-56.69-.24-1.47-1.02-2.65-1.67-3.94l-64.47-111.81,143.4,82.18c-3.44,27.55,30.35,44.1,49.72,23.84,20.76-21.71-1.88-57.44-30.72-47.25ZM185.24,352.88s0,0,.01,0c0,0,0,0-.01,0ZM187.36,370.9c0,.07-.17.44-.39.93.21-.49.39-.86.39-.93h0ZM186.81,372.24c-.04.1-.08.2-.12.3.04-.1.08-.2.12-.3ZM186.44,368.63c.12.84.55,1.32.78,1.81-.23-.48-.66-.97-.78-1.81ZM198.1,371.68c-1.19-.17-3.04.1-4.75.11,1.71,0,3.56-.28,4.75-.11ZM196.94,366.75c.08-.03.15-.06.22-.09-.07.03-.14.07-.22.09ZM190.44,367.15c.55-.19,1.23-.23,1.96-.22-.73,0-1.42.03-1.96.22ZM198.09,374.35v.89h0v-.89ZM186.68,358.6c-.37-1.22-.47-1.88-.35-2.77-.51,3.12,2.11,6.33,5.46,6.02-2.26,0-4.39-.95-5.11-3.25ZM187.46,352.79c-.44.02-.85.05-1.24.07.39-.02.8-.04,1.24-.07ZM186.84,377.86c-.68,2.68.06,5.93-1.06,8.94,1.12-3.01.38-6.26,1.06-8.94l6.03-.14-6.03.14ZM197.84,366.13c.42-.54.56-1.38.26-2.71.01.05-10.37-.22-9.76.33-.14-.71,9.45-.16,9.76-.33.3,1.33.16,2.17-.26,2.71ZM197.21,349.25c.11.03.21.16.31.36-2.81-1.86-11.04.58-14.78-.36h0c3.63.7,11.42-.94,14.47,0ZM197.72,350.14c-.03-.12-.07-.22-.11-.32.04.1.07.2.11.32ZM182.68,349.8c-.03.28-.04.54-.04.77,0-.23.01-.49.04-.77Z" fill="#00aeef"/></svg>