<?xml version="1.0" encoding="UTF-8"?><svg id="a" xmlns="http://www.w3.org/2000/svg" viewBox="0 0 1939.85 482.28"><path d="M706.38,162.5c0,6.78-1.33,12.61-4,17.49-2.67,4.88-6.44,8.32-11.32,10.31l22.11,40.96h-33.09l-14.92-35.4h-10.31v35.4h-28.34v-101.71h38.79c13.74,0,24.03,2.67,30.85,8,6.83,5.33,10.24,13.65,10.24,24.95ZM676.81,163.58c0-4.43-.81-7.44-2.44-9.02-1.63-1.58-4.57-2.37-8.82-2.37h-10.71v23.33h10.44c4.34,0,7.34-.79,9.02-2.37,1.67-1.58,2.51-4.77,2.51-9.56Z" fill="#212952"/><path d="M759.27,232.75c-28.75,0-43.13-14.51-43.13-43.53,0-13.56,3.14-24,9.43-31.33,6.28-7.32,15.8-10.98,28.55-10.98,11.3,0,20,3.23,26.11,9.7,6.1,6.46,9.15,16.12,9.15,28.95,0,3.98-.23,7.87-.68,11.66h-45.43c.54,4.97,2.35,8.52,5.42,10.65,3.07,2.12,7.68,3.19,13.83,3.19,7.68,0,14.96-1.13,21.83-3.39l2.85,20.07c-7.78,3.35-17.09,5.02-27.94,5.02ZM742.72,180.81h22.78c-.09-4.61-1.06-7.96-2.92-10.04-1.85-2.08-4.63-3.12-8.34-3.12-3.98,0-6.8.95-8.48,2.85-1.67,1.9-2.69,5.34-3.05,10.31Z" fill="#212952"/><path d="M871.96,231.26h-20.34l-2.31-6.51c-5.61,5.42-12.7,8.14-21.29,8.14-21.16,0-31.73-14.51-31.73-43.53,0-13.56,2.67-24.05,8-31.46,5.33-7.41,13.06-11.12,23.19-11.12,7.05,0,13.2,2.12,18.44,6.37l.27-.27-.27-10.85v-15.6l26.04-1.22v106.05ZM845.93,207.12v-33.36c-2.44-3.07-5.97-4.61-10.58-4.61s-7.66,1.51-9.43,4.54c-1.76,3.03-2.64,8.57-2.64,16.61,0,8.77.83,14.67,2.51,17.7,1.67,3.03,4.9,4.54,9.7,4.54s8.36-1.81,10.44-5.42Z" fill="#212952"/><path d="M991.58,231.26h-20.34l-2.31-6.51c-5.61,5.42-12.7,8.14-21.29,8.14-21.16,0-31.73-14.51-31.73-43.53,0-13.56,2.67-24.05,8-31.46,5.33-7.41,13.06-11.12,23.19-11.12,7.05,0,13.2,2.12,18.44,6.37l.27-.27-.27-10.85v-15.6l26.04-1.22v106.05ZM965.54,207.12v-33.36c-2.44-3.07-5.97-4.61-10.58-4.61s-7.66,1.51-9.43,4.54c-1.76,3.03-2.64,8.57-2.64,16.61,0,8.77.83,14.67,2.51,17.7,1.67,3.03,4.9,4.54,9.7,4.54s8.36-1.81,10.44-5.42Z" fill="#212952"/><path d="M1045.42,232.75c-28.75,0-43.13-14.51-43.13-43.53,0-13.56,3.14-24,9.43-31.33,6.28-7.32,15.8-10.98,28.55-10.98,11.3,0,20,3.23,26.11,9.7,6.1,6.46,9.15,16.12,9.15,28.95,0,3.98-.23,7.87-.68,11.66h-45.43c.54,4.97,2.35,8.52,5.42,10.65,3.07,2.12,7.68,3.19,13.83,3.19,7.68,0,14.96-1.13,21.83-3.39l2.85,20.07c-7.78,3.35-17.09,5.02-27.94,5.02ZM1028.87,180.81h22.78c-.09-4.61-1.06-7.96-2.92-10.04-1.85-2.08-4.63-3.12-8.34-3.12-3.98,0-6.8.95-8.48,2.85-1.67,1.9-2.69,5.34-3.05,10.31Z" fill="#212952"/><path d="M1189.98,154.09h-41.91v17.09h34.72l-.27,23.19h-34.45v36.89h-28.34v-101.71h69.84l.41,24.55Z" fill="#212952"/><path d="M1264.91,157.07c6.19,6.87,9.29,17.9,9.29,33.09s-3.1,26.15-9.29,32.89c-6.19,6.74-16.16,10.1-29.9,10.1s-23.6-3.39-29.84-10.17c-6.24-6.78-9.36-17.72-9.36-32.82s3.14-26.11,9.43-33.02c6.28-6.92,16.25-10.38,29.9-10.38s23.57,3.44,29.77,10.31ZM1222.93,190.17c0,8.95.88,14.96,2.64,18.04,1.76,3.07,4.95,4.61,9.56,4.61s7.77-1.54,9.49-4.61c1.72-3.07,2.58-9.09,2.58-18.04s-.86-15.08-2.58-18.11c-1.72-3.03-4.88-4.54-9.49-4.54s-7.91,1.52-9.63,4.54c-1.72,3.03-2.58,9.07-2.58,18.11Z" fill="#212952"/><path d="M1310.68,231.26h-26.17v-82.32l20.75-.95,2.31,11.93h.41c4.97-8.68,12.07-13.02,21.29-13.02,3.8,0,6.92.45,9.36,1.36l-1.49,24.68c-2.98-.9-6.19-1.36-9.63-1.36-5.15,0-9.25,1.61-12.27,4.81-3.03,3.21-4.54,7.71-4.54,13.49v41.36Z" fill="#212952"/><path d="M1464.19,231.26h-26.04v-51.81c0-6.96-3.21-10.44-9.63-10.44s-9.49,3.35-9.49,10.04v52.21h-26.17v-52.21c0-6.69-3.17-10.04-9.49-10.04-4.25,0-7.46,1.54-9.63,4.61v57.64h-26.04v-82.32l18.72-1.08,4.07,7.05c6.15-5.42,13.06-8.14,20.75-8.14,9.76,0,16.91,3.44,21.43,10.31,5.7-6.87,13.43-10.31,23.19-10.31,8.59,0,15.46,2.76,20.61,8.27,5.15,5.52,7.73,13.47,7.73,23.87v52.35Z" fill="#212952"/><path d="M1523.59,231.26l-1.9-6.78c-5.7,5.42-12.88,8.14-21.56,8.14-8.23,0-14.6-2.35-19.12-7.05-4.52-4.7-6.78-11.62-6.78-20.75,0-7.77,2.64-14.08,7.93-18.92,5.29-4.83,12.5-7.25,21.63-7.25,5.06,0,9.72.59,13.97,1.76v-2.98c0-3.16-1.06-5.54-3.19-7.12-2.13-1.58-5.63-2.37-10.51-2.37-7.32,0-14.87,1.4-22.65,4.2l-2.03-19.8c8.41-3.62,18.26-5.42,29.56-5.42,12.75,0,21.72,2.74,26.92,8.21,5.2,5.47,7.8,14.13,7.8,25.97v50.18h-20.07ZM1517.76,205.36v-8.41c-2.89-.81-5.88-1.22-8.95-1.22-6.78,0-10.17,2.94-10.17,8.81s2.89,8.41,8.68,8.41c2.89,0,5.36-.72,7.39-2.17,2.03-1.44,3.05-3.25,3.05-5.42Z" fill="#212952"/><path d="M1612.29,150.29l-1.36,21.16c-4.88-1.36-9.09-2.03-12.61-2.03-6.87,0-11.6,1.51-14.17,4.54-2.58,3.03-3.86,8.48-3.86,16.34,0,14.1,5.83,21.16,17.49,21.16,4.79,0,9.31-.81,13.56-2.44l1.76,19.53c-5.06,2.89-12.07,4.34-21.02,4.34-12.75,0-22.42-3.59-29.02-10.78-6.6-7.19-9.9-17.79-9.9-31.8,0-28.84,13.15-43.26,39.46-43.26,7.41,0,13.97,1.08,19.66,3.25Z" fill="#212952"/><path d="M1652.16,131.99c0,6.78-4.7,10.17-14.1,10.17-4.97,0-8.59-.77-10.85-2.31-2.26-1.54-3.39-4.16-3.39-7.87,0-6.78,4.75-10.17,14.24-10.17s14.1,3.39,14.1,10.17ZM1651.34,231.26h-26.72v-82.18l26.72-1.22v83.4Z" fill="#212952"/><path d="M1732.64,157.07c6.19,6.87,9.29,17.9,9.29,33.09s-3.1,26.15-9.29,32.89c-6.19,6.74-16.16,10.1-29.9,10.1s-23.6-3.39-29.84-10.17c-6.24-6.78-9.36-17.72-9.36-32.82s3.14-26.11,9.43-33.02c6.28-6.92,16.25-10.38,29.9-10.38s23.57,3.44,29.77,10.31ZM1697.04,122.9h29.43l-16.82,19.8h-19.39l6.78-19.8ZM1690.67,190.17c0,8.95.88,14.96,2.64,18.04,1.76,3.07,4.95,4.61,9.56,4.61s7.77-1.54,9.49-4.61c1.72-3.07,2.58-9.09,2.58-18.04s-.86-15.08-2.58-18.11c-1.72-3.03-4.88-4.54-9.49-4.54s-7.91,1.52-9.63,4.54c-1.72,3.03-2.58,9.07-2.58,18.11Z" fill="#212952"/><path d="M1825.34,231.26h-26.17v-51.81c0-3.71-.81-6.4-2.44-8.07-1.63-1.67-4.16-2.51-7.59-2.51-4.79,0-8.41,1.58-10.85,4.75v57.64h-26.04v-82.46l18.72-1.08,3.66,6.51c6.24-4.97,13.56-7.46,21.97-7.46,8.86,0,15.87,2.85,21.02,8.54,5.15,5.7,7.73,13.74,7.73,24.14v51.81Z" fill="#212952"/><path d="M695.12,327.38c0,10.22-3.53,18.29-10.58,24.21-7.05,5.92-16.68,8.88-28.89,8.88s-22.74-2.49-32.41-7.46l3.53-23.46c9.76,4.88,19.3,7.32,28.62,7.32,8.41,0,12.61-2.58,12.61-7.73,0-1.9-1.11-3.57-3.32-5.02-2.22-1.45-4.97-2.64-8.27-3.59-3.3-.95-6.87-2.26-10.71-3.93-3.84-1.67-7.41-3.57-10.71-5.7-3.3-2.12-6.06-5.2-8.27-9.22-2.22-4.02-3.32-8.7-3.32-14.04,0-9.58,3.23-17.4,9.7-23.46,6.46-6.06,16.16-9.09,29.09-9.09,10.94,0,20.79,1.72,29.56,5.15l-3.25,22.92c-8.95-2.62-17.18-3.93-24.68-3.93-5.06,0-8.52.59-10.37,1.76-1.85,1.18-2.78,2.89-2.78,5.15,0,1.9,1.11,3.59,3.32,5.08,2.21,1.49,4.95,2.69,8.2,3.59,3.25.91,6.83,2.17,10.71,3.8,3.89,1.63,7.46,3.48,10.71,5.56,3.25,2.08,5.99,5.13,8.2,9.15,2.21,4.02,3.32,8.7,3.32,14.04Z" fill="#00aeef"/><path d="M751.27,358.57l-1.9-6.78c-5.7,5.42-12.88,8.14-21.56,8.14-8.23,0-14.6-2.35-19.12-7.05-4.52-4.7-6.78-11.62-6.78-20.75,0-7.77,2.64-14.08,7.93-18.92,5.29-4.83,12.5-7.25,21.63-7.25,5.06,0,9.72.59,13.97,1.76v-2.98c0-3.16-1.06-5.54-3.19-7.12-2.13-1.58-5.63-2.37-10.51-2.37-7.32,0-14.87,1.4-22.65,4.2l-2.03-19.8c8.41-3.62,18.26-5.42,29.56-5.42,12.75,0,21.72,2.74,26.92,8.21,5.2,5.47,7.8,14.13,7.8,25.97v50.18h-20.07ZM745.43,332.67v-8.41c-2.89-.81-5.88-1.22-8.95-1.22-6.78,0-10.17,2.94-10.17,8.81s2.89,8.41,8.68,8.41c2.89,0,5.36-.72,7.39-2.17,2.03-1.44,3.05-3.25,3.05-5.42Z" fill="#00aeef"/><path d="M857.18,358.57h-26.17v-51.81c0-3.71-.81-6.4-2.44-8.07-1.63-1.67-4.16-2.51-7.59-2.51-4.79,0-8.41,1.58-10.85,4.75v57.64h-26.04v-82.46l18.72-1.08,3.66,6.51c6.24-4.97,13.56-7.46,21.97-7.46,8.86,0,15.87,2.85,21.02,8.54,5.15,5.7,7.73,13.74,7.73,24.14v51.81Z" fill="#00aeef"/><path d="M904.1,256.86h31.06l20.21,51.94,3.8,10.31h.41l3.66-10.17,20.48-52.08h30.92v101.71h-25.9v-42.85l.27-10.99-.41-.14-3.8,10.44-16.68,43.53h-18.58l-16.68-43.8-3.66-10.44-.27.14.14,10.99v43.13h-24.95v-101.71Z" fill="#00aeef"/><path d="M1075.52,358.57l-1.9-6.78c-5.7,5.42-12.88,8.14-21.56,8.14-8.23,0-14.6-2.35-19.12-7.05-4.52-4.7-6.78-11.62-6.78-20.75,0-7.77,2.64-14.08,7.93-18.92,5.29-4.83,12.5-7.25,21.63-7.25,5.06,0,9.72.59,13.97,1.76v-2.98c0-3.16-1.06-5.54-3.19-7.12-2.13-1.58-5.63-2.37-10.51-2.37-7.32,0-14.87,1.4-22.65,4.2l-2.03-19.8c8.41-3.62,18.26-5.42,29.56-5.42,12.75,0,21.72,2.74,26.92,8.21,5.2,5.47,7.8,14.13,7.8,25.97v50.18h-20.07ZM1069.69,332.67v-8.41c-2.89-.81-5.88-1.22-8.95-1.22-6.78,0-10.17,2.94-10.17,8.81s2.89,8.41,8.68,8.41c2.89,0,5.36-.72,7.39-2.17,2.03-1.44,3.05-3.25,3.05-5.42Z" fill="#00aeef"/><path d="M1134.51,358.57h-26.17v-82.32l20.75-.95,2.31,11.93h.41c4.97-8.68,12.07-13.02,21.29-13.02,3.8,0,6.92.45,9.36,1.36l-1.49,24.68c-2.98-.9-6.19-1.36-9.63-1.36-5.15,0-9.25,1.61-12.27,4.81-3.03,3.21-4.54,7.71-4.54,13.49v41.36Z" fill="#00aeef"/><path d="M1218.05,294.42h-17.22v38.11c0,2.62.68,4.54,2.03,5.76s3.53,1.83,6.51,1.83c2.53,0,4.66-.32,6.37-.95l1.36,18.17c-3.44,1.72-8.68,2.58-15.73,2.58-8.86,0-15.53-2.35-20-7.05-4.48-4.7-6.71-11.26-6.71-19.66v-38.79h-7.87v-18.85h9.22l4.2-17.63,20.61-1.76v19.39h17.22v18.85Z" fill="#00aeef"/><path d="M1255.48,358.57h-26.72v-82.18l26.72-1.22v83.4ZM1236.9,250.21h29.43l-16.82,19.8h-19.39l6.78-19.8Z" fill="#00aeef"/><path d="M1344.04,358.57h-26.17v-51.81c0-3.71-.81-6.4-2.44-8.07-1.63-1.67-4.16-2.51-7.59-2.51-4.79,0-8.41,1.58-10.85,4.75v57.64h-26.04v-82.46l18.72-1.08,3.66,6.51c6.24-4.97,13.56-7.46,21.97-7.46,8.86,0,15.87,2.85,21.02,8.54,5.15,5.7,7.73,13.74,7.73,24.14v51.81Z" fill="#00aeef"/><path d="M326.01,17.52c.48.03.97-.05,1.44,0,.3.03,1.79.56,2.89.72,24.3,3.67,46.85,18.97,58.57,40.64,7.17,13.26,10,28.01,9.98,43.05,6.06-2.18,11.57-5.8,17.66-7.95,62.03-21.9,122,36.08,103.19,98.86-5.46,18.22-17.69,32.83-33,43.52-1.51,1.05-7.38,3.32-7.01,5.11.25,1.17,10.93,7.29,12.9,8.79,70.19,53.38,10.08,168.27-76.08,138.13-6.11-2.14-11.68-5.9-17.66-7.95-.41,4.41-.2,9.77-.74,14.06-7.36,58.92-73.17,89.66-123.37,57.37-6.21-3.99-10.92-10.42-16.59-13.71-.51-2.68-5.87-8.89-7.78-12.06-4.81-8.01-8.52-17.49-10.03-26.77-1.05-6.42-.89-12.49-1.67-18.9-5.52,1.76-10.62,5.17-16.22,7.23-6,2.21-12.23,3.49-18.41,5.04-.48,0-.96,0-1.44,0h-2.89c-3.59.05-7.23.04-10.82,0h-2.16c-.72,0-1.44,0-2.16,0-4.43-1.4-9.14-2.06-13.71-2.89-.23-.04-.49.04-.72,0-4.82-2.68-10.08-4.4-14.91-7.09-38.53-21.46-52.5-72.3-29.82-110.51.31-.52.51-1.1.72-1.44,7.76-12.26,19.37-21.9,32.01-28.8,1.82-1.66-4-3.48-5.55-4.51-20.02-13.35-32.67-30.78-37.28-54.71.03-.7.11-3.46,0-3.61l-.72-1.44c.04-.47-.02-.96,0-1.44.16-4.18.14-8.8,0-12.99-.02-.72.05-1.45,0-2.16.96-.34.66-1.38.72-2.16,3.72-51.28,60.75-81.31,107.16-64.23,5.64,2.08,10.71,5.39,16.22,7.23-.17-20.27,5.53-40.35,18.78-55.89,13.04-15.29,31.17-25.32,51.21-27.8,5.67-.7,11.55-1.13,17.32-.72ZM312.3,62.97c-1.16.2-1.88.47-2.89.72-.86.22-1.25.66-1.44.72-.85.27-1.24.35-2.16.72-.72.29-1.72.16-2.89.72-13.35,6.48-20.62,20.96-19.6,35.6-21.91,13.62-44.68,26.06-66.97,39.14-2.31.48-4.8-2.28-6.95-3.22-43.89-19.27-71.69,44.62-29.1,64.61-.03,10.9-.06,21.81-.03,32.71.01,4.08.01,8.19,0,12.27l-.12,33.43c-6.35,3.73-11.84,7.41-15.78,13.81-19.45,31.64,16.29,68.26,48.3,49.02,24.75-14.88,21.54-51.1-4.3-62.83.07-11.14,0-22.3.03-33.43,0-4.56-.02-9.15,0-13.71.02-3.6-.02-7.22,0-10.82l1.07.73,80.86,139.9c-2.91,6.03-6.28,11.55-6.89,18.47-1.53,17.61,10.5,34.74,28.13,37.87,6.34,1.13,11.12,1.03,17.32-.72,32.88-9.27,33.41-56.92,1.44-67.1-5.35-1.7-10.99-2.4-16.59-2.16-.29-1.8-1.25-3.23-2.04-4.81l-78.76-136.6,175.2,100.4c-4.21,33.65,37.08,53.87,60.75,29.13,25.36-26.52-2.3-70.18-37.53-57.73-3.43,1.21-7.68,5.04-10.61,4.14-53.86-31.43-108.35-61.82-162.21-93.24-3.72-2.17-7.9-4.46-11.18-7.22h163.42c13.73,31.22,60.38,26.77,67.14-7.18,5.69-28.6-24.05-51.69-50.21-38.67-7.41,3.69-13.72,9.85-16.56,17.71h-163.78c15.93-10.65,33.32-19.37,49.78-29.3,1.06-.25,5.36,2.83,7.24,3.66,2.51,1.12,5.2,2.06,7.91,2.55,5.38.98,10.57.66,15.87-.72,33.76-8.82,34.26-58.36,1.44-67.82-5.98-1.72-11.3-1.76-17.32-.72Z" fill="#212952"/><path d="M431.36,279.79c-3.43,1.21-7.68,5.04-10.61,4.14-57.39-34.11-116.71-65.27-173.38-100.47h163.42c13.73,31.22,60.38,26.77,67.14-7.18,5.69-28.6-24.05-51.69-50.21-38.67-7.41,3.69-13.72,9.85-16.56,17.71h-163.78c15.93-10.65,33.32-19.37,49.78-29.3,1.06-.25,5.36,2.83,7.24,3.66,57.58,22.22,68.9-75.94,7.91-66.71-18.14,3.02-30.55,20.18-28.98,38.48-21.91,13.62-44.68,26.06-66.97,39.14-43.72-28.12-83.16,37.79-36.05,61.39-.06,24.04,0,54.12-.14,78.41-44.27,20.65-10.53,88.23,32.53,62.83,24.75-14.87,21.53-51.1-4.3-62.83.08-19.32,0-38.64.04-57.96,1.8-.09,80.87,139.89,81.93,140.63-14.61,20.38-4.43,51.92,21.24,56.34,6.34,1.13,11.12,1.03,17.32-.72.12-1.86-1.61-1.26-2-3.38-.28-1.54-.23-3.11-.18-4.68-.05,1.57-.1,3.14.18,4.68.39,2.12,2.12,1.52,2,3.38,41.81-12.52,26.85-74.29-15.15-69.26-.29-1.8-1.25-3.23-2.04-4.81l-78.76-136.6,175.2,100.4c-4.21,33.65,37.08,53.87,60.75,29.13,25.36-26.52-2.3-70.18-37.53-57.73ZM311.03,377.66s0,0,.01,0c0,0,0,0-.01,0ZM313.62,399.68c0,.09-.21.54-.47,1.14.26-.6.48-1.05.47-1.14h0ZM312.94,401.31c-.05.12-.1.24-.14.36.05-.12.1-.24.14-.36ZM312.49,396.9c.15,1.02.67,1.62.96,2.21-.28-.59-.81-1.18-.96-2.21ZM326.74,400.63c-1.45-.2-3.71.12-5.8.13,2.09,0,4.35-.34,5.8-.13ZM325.32,394.6c.09-.03.18-.07.27-.11-.09.04-.18.08-.27.11ZM317.39,395.09c.67-.23,1.5-.28,2.4-.27-.9,0-1.73.04-2.4.27ZM326.73,403.88v1.08h0v-1.08ZM312.79,384.65c-.45-1.49-.58-2.29-.43-3.39-.63,3.81,2.58,7.73,6.67,7.36-2.76,0-5.36-1.16-6.25-3.97ZM313.74,377.55c-.54.03-1.04.06-1.52.08.48-.02.98-.05,1.52-.08ZM312.99,408.17c-.83,3.28.07,7.24-1.3,10.92,1.37-3.68.47-7.64,1.3-10.92l7.36-.17-7.36.17ZM326.42,393.85c.51-.65.68-1.69.31-3.31.02.06-12.67-.26-11.93.4-.17-.87,11.54-.2,11.93-.4.36,1.62.2,2.66-.31,3.31ZM325.65,373.22c.13.04.26.2.38.44-3.43-2.27-13.49.7-18.06-.44h0c4.43.85,13.95-1.15,17.68,0ZM326.28,374.31c-.04-.14-.09-.27-.13-.39.05.12.09.25.13.39ZM307.9,373.9c-.03.34-.05.66-.05.95,0-.28.02-.6.05-.95Z" fill="#00aeef"/></svg>